<svg width="46" height="260" viewBox="0 0 46 260" fill="none" xmlns="http://www.w3.org/2000/svg">
<path d="M26 3C26 1.34315 24.6569 -7.24234e-08 23 0C21.3431 7.24234e-08 20 1.34315 20 3L26 3ZM20.8787 259.121C22.0503 260.293 23.9498 260.293 25.1213 259.121L44.2132 240.029C45.3848 238.858 45.3848 236.958 44.2132 235.787C43.0416 234.615 41.1421 234.615 39.9706 235.787L23 252.757L6.02945 235.787C4.85787 234.615 2.95838 234.615 1.78681 235.787C0.615234 236.958 0.615234 238.858 1.78681 240.029L20.8787 259.121ZM20 3L20 257L26 257L26 3L20 3Z" fill="black"/>
</svg>
