<svg width="46" height="205" viewBox="0 0 46 205" fill="none" xmlns="http://www.w3.org/2000/svg">
<path d="M26 3C26 1.34315 24.6569 -7.24234e-08 23 0C21.3431 7.24234e-08 20 1.34315 20 3L26 3ZM20.8787 204.121C22.0503 205.293 23.9498 205.293 25.1213 204.121L44.2132 185.029C45.3848 183.858 45.3848 181.958 44.2132 180.787C43.0416 179.615 41.1421 179.615 39.9706 180.787L23 197.757L6.02945 180.787C4.85787 179.615 2.95838 179.615 1.7868 180.787C0.615232 181.958 0.615232 183.858 1.7868 185.029L20.8787 204.121ZM20 3L20 202L26 202L26 3L20 3Z" fill="black"/>
</svg>
