<svg xmlns="http://www.w3.org/2000/svg" xmlns:xlink="http://www.w3.org/1999/xlink" version="1.1" viewBox="183.75 52.5 424.5 348.75">
<defs>
<clipPath id="clip_0">
<path transform="matrix(.75,0,0,.75,183,52.5)" d="M1 0H567V465H1V0Z"/>
</clipPath>
</defs>
<g>
<g clip-path="url(#clip_0)">
<path transform="matrix(.75,0,0,.75,183,52.5)" d="M158 23H566V44H158V23Z" fill="#ffffff"/>
<path transform="matrix(.75,0,0,.75,183,52.5)" d="M158 44H566V65H158V44Z" fill="#ffffff"/>
<path transform="matrix(.75,0,0,.75,183,52.5)" d="M158 65H566V86H158V65Z" fill="#ffffff"/>
<path transform="matrix(.75,0,0,.75,183,52.5)" d="M158 86H566V107H158V86Z" fill="#ffffff"/>
<path transform="matrix(.75,0,0,.75,183,52.5)" d="M158 107H566V128H158V107Z" fill="#ffffff"/>
<path transform="matrix(.75,0,0,.75,183,52.5)" d="M158 128H566V149H158V128Z" fill="#ffffff"/>
<path transform="matrix(.75,0,0,.75,183,52.5)" d="M158 149H566V170H158V149Z" fill="#ffffff"/>
<path transform="matrix(.75,0,0,.75,183,52.5)" d="M158 170H566V191H158V170Z" fill="#ffffff"/>
<path transform="matrix(.75,0,0,.75,183,52.5)" d="M158 191H566V212H158V191Z" fill="#ffffff"/>
<path transform="matrix(.75,0,0,.75,183,52.5)" d="M158 212H566V233H158V212Z" fill="#ffffff"/>
<path transform="matrix(.75,0,0,.75,183,52.5)" d="M158 233H566V254H158V233Z" fill="#ffffff"/>
<path transform="matrix(.75,0,0,.75,183,52.5)" d="M158 254H566V275H158V254Z" fill="#ffffff"/>
<path transform="matrix(.75,0,0,.75,183,52.5)" d="M158 275H566V296H158V275Z" fill="#ffffff"/>
<path transform="matrix(.75,0,0,.75,183,52.5)" d="M158 296H566V317H158V296Z" fill="#ffffff"/>
<path transform="matrix(.75,0,0,.75,183,52.5)" d="M158 317H566V338H158V317Z" fill="#ffffff"/>
<path transform="matrix(.75,0,0,.75,183,52.5)" d="M158 338H566V359H158V338Z" fill="#ffffff"/>
<path transform="matrix(.75,0,0,.75,183,52.5)" d="M158 359H566V380H158V359Z" fill="#ffffff"/>
<path transform="matrix(.75,0,0,.75,183,52.5)" d="M158 380H566V401H158V380Z" fill="#ffffff"/>
<path transform="matrix(.75,0,0,.75,183,52.5)" d="M158 401H566V422H158V401Z" fill="#ffffff"/>
<path transform="matrix(.75,0,0,.75,183,52.5)" d="M158 422H566V443H158V422Z" fill="#ffffff"/>
<path transform="matrix(.75,0,0,.75,183,52.5)" d="M158 443H566V464H158V443Z" fill="#ffffff"/>
<path transform="matrix(.75,0,0,.75,183,52.5)" d="M2 1H566V23H2V1Z" fill="#ffd966"/>
<path transform="matrix(.75,0,0,.75,183,52.5)" d="M2 22H57V464H2V22Z" fill="#b7b7b7"/>
<path transform="matrix(.75,0,0,.75,183,52.5)" d="M56 22H158V44H56V22Z" fill="#c9daf8"/>
<path transform="matrix(.75,0,0,.75,183,52.5)" d="M56 43H158V65H56V43Z" fill="#d0e0e3"/>
<path transform="matrix(.75,0,0,.75,183,52.5)" d="M56 64H158V86H56V64Z" fill="#d9ead3"/>
<path transform="matrix(.75,0,0,.75,183,52.5)" d="M56 85H158V107H56V85Z" fill="#fff2cc"/>
<path transform="matrix(.75,0,0,.75,183,52.5)" d="M56 106H158V128H56V106Z" fill="#f9cb9c"/>
<path transform="matrix(.75,0,0,.75,183,52.5)" d="M56 127H158V149H56V127Z" fill="#c9daf8"/>
<path transform="matrix(.75,0,0,.75,183,52.5)" d="M56 148H158V170H56V148Z" fill="#d0e0e3"/>
<path transform="matrix(.75,0,0,.75,183,52.5)" d="M56 169H158V191H56V169Z" fill="#d9ead3"/>
<path transform="matrix(.75,0,0,.75,183,52.5)" d="M56 190H158V212H56V190Z" fill="#fff2cc"/>
<path transform="matrix(.75,0,0,.75,183,52.5)" d="M56 211H158V233H56V211Z" fill="#f9cb9c"/>
<path transform="matrix(.75,0,0,.75,183,52.5)" d="M56 232H158V254H56V232Z" fill="#c9daf8"/>
<path transform="matrix(.75,0,0,.75,183,52.5)" d="M56 253H158V275H56V253Z" fill="#d0e0e3"/>
<path transform="matrix(.75,0,0,.75,183,52.5)" d="M56 274H158V296H56V274Z" fill="#d9ead3"/>
<path transform="matrix(.75,0,0,.75,183,52.5)" d="M56 295H158V317H56V295Z" fill="#fff2cc"/>
<path transform="matrix(.75,0,0,.75,183,52.5)" d="M56 316H158V338H56V316Z" fill="#f9cb9c"/>
<path transform="matrix(.75,0,0,.75,183,52.5)" d="M56 337H158V359H56V337Z" fill="#c9daf8"/>
<path transform="matrix(.75,0,0,.75,183,52.5)" d="M56 358H158V380H56V358Z" fill="#d0e0e3"/>
<path transform="matrix(.75,0,0,.75,183,52.5)" d="M56 379H158V401H56V379Z" fill="#d9ead3"/>
<path transform="matrix(.75,0,0,.75,183,52.5)" d="M56 400H158V422H56V400Z" fill="#fff2cc"/>
<path transform="matrix(.75,0,0,.75,183,52.5)" d="M56 421H158V443H56V421Z" fill="#f9cb9c"/>
<path transform="matrix(.75,0,0,.75,183,52.5)" d="M56 442H158V464H56V442Z" fill="#d5a6bd"/>
<path transform="matrix(.75,0,0,.75,183,52.5)" d="" fill-opacity=".14901962"/>
<path transform="matrix(.75,0,0,.75,183,52.5)" stroke-width="1" stroke-linecap="butt" stroke-miterlimit="10" stroke-linejoin="miter" fill="none" stroke="#000000" d="M2.5 1V464M56.5 1V464M157.5 1V464M321.5 1V23M321.5 43V443M471.5 1V464M2 1.5H566M2 22.5H566M56 43.5H566M56 64.5H566M56 85.5H566M56 106.5H566M2 127.5H566M56 148.5H566M56 169.5H566M56 190.5H566M56 211.5H566M2 232.5H566M56 253.5H566M56 274.5H566M56 295.5H566M56 316.5H566M2 337.5H566M56 358.5H566M56 379.5H566M56 400.5H566M56 421.5H566M2 442.5H566M2 463.5H566M565.5 1V464"/>
<text xml:space="preserve" transform="matrix(.75 0 0 .75 183 52.5)" font-size="13" font-family="ArialMT"><tspan y="17.245118" x="60 69.386 76.614 80.215">Date</tspan></text>
<text xml:space="preserve" transform="matrix(.75 0 0 .75 183 52.5)" font-size="13" font-family="ArialMT"><tspan y="17.245118" x="161 169.658 176.886 184.114 191.342 197.842 205.06999 209.39899">Speakers</tspan></text>
<text xml:space="preserve" transform="matrix(.75 0 0 .75 183 52.5)" font-size="13" font-family="ArialMT"><tspan y="17.245118" x="325 332.93 340.158 347.386 350.27198">Topic</tspan></text>
<text xml:space="preserve" transform="matrix(.75 0 0 .75 183 52.5)" font-size="13" font-family="ArialMT"><tspan y="17.245118" x="475 482.228 489.456 495.956 503.184 506.785 509.671 516.899">Location</tspan></text>
<text xml:space="preserve" transform="matrix(.75 0 0 .75 183 52.5)" font-size="13" font-family="ArialMT"><tspan y="122.24512" x="6 18.025 25.253 32.481004 38.981004 42.582006">Week 1</tspan></text>
<text xml:space="preserve" transform="matrix(.75 0 0 .75 183 52.5)" font-size="13" font-family="ArialMT"><tspan y="38.245119" x="111.36914 118.59714 125.825138 129.42613 140.25513 147.48313">22 May</tspan></text>
<text xml:space="preserve" transform="matrix(.75 0 0 .75 183 52.5)" font-size="13" font-family="ArialMT"><tspan y="38.245119" x="209 212.601 219.829 227.05699 234.28499 241.51299 248.74098 253.06998 260.29798 263.18397 266.78498 276.17097 283.39897 287.72798 294.95597 305.78498 313.01298 320.24098 326.74098 330.34199 337.921 341.522 350.908 358.136 368.965 376.193 383.421 389.921 393.288 399.788 407.016 414.244">Inaugural Ceremony + Campus Tour</tspan></text>
<text xml:space="preserve" transform="matrix(.75 0 0 .75 183 52.5)" font-size="13" font-family="ArialMT"><tspan y="38.245119" x="475 482.228 491.61399 500.99998 504.60099 511.82899 519.057">LHC 201</tspan></text>
<text xml:space="preserve" transform="matrix(.75 0 0 .75 183 52.5)" font-size="13" font-family="ArialMT"><tspan y="59.245119" x="111.36914 118.59714 125.825138 129.42613 140.25513 147.48313">23 May</tspan></text>
<text xml:space="preserve" transform="matrix(.75 0 0 .75 183 52.5)" font-size="13" font-family="ArialMT"><tspan y="59.245119" x="161 169.658 173.987 181.215 184.816 188.41699 192.01799 200.676 211.50499 215.83399 218.71999 222.32099 225.20699 228.80799 237.46599 240.35199 247.57999 254.80799">Prof. Smriti Singh</tspan></text>
<text xml:space="preserve" transform="matrix(.75 0 0 .75 183 52.5)" font-size="13" font-family="ArialMT"><tspan y="59.245119" x="325 335.101 342.329 349.557 356.785 364.013 368.342 371.94303 380.601 387.829 395.057 401.557 404.443 408.044 410.93 417.43 424.658 428.259 431.145 438.373">Gender Sensitisation</tspan></text>
<text xml:space="preserve" transform="matrix(.75 0 0 .75 183 52.5)" font-size="13" font-family="ArialMT"><tspan y="59.245119" x="475 482.228 491.61399 500.99998 504.60099 511.82899 519.057">LHC 201</tspan></text>
<text xml:space="preserve" transform="matrix(.75 0 0 .75 183 52.5)" font-size="13" font-family="ArialMT"><tspan y="80.24512" x="111.36914 118.59714 125.825138 129.42613 140.25513 147.48313">24 May</tspan></text>
<text xml:space="preserve" transform="matrix(.75 0 0 .75 183 52.5)" font-size="13" font-family="ArialMT"><tspan y="80.24512" x="161 171.829 176.15799 179.04399 187.702 190.588 197.816 204.316">Mr Ajay </tspan></text>
<text xml:space="preserve" transform="matrix(.75 0 0 .75 183 52.5)" font-size="13" font-family="ArialMT"><tspan y="80.24512" x="325 332.47499 339.70298 346.93098 354.15898 357.75999 362.089 370.74699 377.97499 384.47499 387.36097 394.58897 398.18998 404.68998">Yoga (Anxiety)</tspan></text>
<text xml:space="preserve" transform="matrix(.75 0 0 .75 183 52.5)" font-size="13" font-family="ArialMT"><tspan y="80.24512" x="475 482.228 491.61399 500.99998 504.60099 511.82899 519.057">LHC 201</tspan></text>
<text xml:space="preserve" transform="matrix(.75 0 0 .75 183 52.5)" font-size="13" font-family="ArialMT"><tspan y="101.24512" x="111.36914 118.59714 125.825138 129.42613 140.25513 147.48313">25 May</tspan></text>
<text xml:space="preserve" transform="matrix(.75 0 0 .75 183 52.5)" font-size="13" font-family="ArialMT"><tspan y="101.24512" x="161 170.386 174 177.601 181.202 190.588 197.816 204.316 207.202 210.803 219.461 226.689 233.91699 240.41699 243.303">Dr. Ravi Bhasin</tspan></text>
<text xml:space="preserve" transform="matrix(.75 0 0 .75 183 52.5)" font-size="13" font-family="ArialMT"><tspan y="101.24512" x="475 482.228 491.61399 500.99998 504.60099 511.82899 519.057">LHC 201</tspan></text>
<text xml:space="preserve" transform="matrix(.75 0 0 .75 183 52.5)" font-size="13" font-family="ArialMT"><tspan y="122.24512" x="111.36914 118.59714 125.825138 129.42613 140.25513 147.48313">26 May</tspan></text>
<text xml:space="preserve" transform="matrix(.75 0 0 .75 183 52.5)" font-size="13" font-family="ArialMT"><tspan y="122.24512" x="161 171.829 176.15799 179.04399 187.702 194.93 202.15799 206.48699 213.71498 220.94298 224.54398 234.64498 241.87297 244.75897 251.98697 255.58797">Mr Anurag Gulati</tspan></text>
<text xml:space="preserve" transform="matrix(.75 0 0 .75 183 52.5)" font-size="13" font-family="ArialMT"><tspan y="122.24512" x="325 332.93 340.158 343.04399 345.92997 353.15797 357.48698">Faliure</tspan></text>
<text xml:space="preserve" transform="matrix(.75 0 0 .75 183 52.5)" font-size="13" font-family="ArialMT"><tspan y="122.24512" x="475 482.228 491.61399 500.99998 504.60099 511.82899 519.057">LHC 201</tspan></text>
<text xml:space="preserve" transform="matrix(.75 0 0 .75 183 52.5)" font-size="13" font-family="ArialMT"><tspan y="227.24512" x="6 18.025 25.253 32.481004 38.981004 42.582006">Week 2</tspan></text>
<text xml:space="preserve" transform="matrix(.75 0 0 .75 183 52.5)" font-size="13" font-family="ArialMT"><tspan y="143.24512" x="111.36914 118.59714 125.825138 129.42613 140.25513 147.48313">29 May</tspan></text>
<text xml:space="preserve" transform="matrix(.75 0 0 .75 183 52.5)" font-size="13" font-family="ArialMT"><tspan y="143.24512" x="161 167.5 174.728 177.614 184.842 191.342 194.943 202.17099 205.77199 209.37299 218.75899 225.98699 236.81598 244.04398 251.27198 257.77198 260.65797 267.88597 275.11396">Tales of Humankind </tspan></text>
<text xml:space="preserve" transform="matrix(.75 0 0 .75 183 52.5)" font-size="13" font-family="ArialMT"><tspan y="143.24512" x="475 482.228 491.61399 500.99998 504.60099 511.82899 519.057">LHC 201</tspan></text>
<text xml:space="preserve" transform="matrix(.75 0 0 .75 183 52.5)" font-size="13" font-family="ArialMT"><tspan y="164.24512" x="111.36914 118.59714 125.825138 129.42613 140.25513 147.48313">30 May</tspan></text>
<text xml:space="preserve" transform="matrix(.75 0 0 .75 183 52.5)" font-size="13" font-family="ArialMT"><tspan y="164.24512" x="161 169.658 173.987 181.215 184.816 188.41699 191.303 199.961 207.189 214.41699 217.303 220.90399 231.00499 235.33399 242.56198 249.06198 256.28999">Prof. Anuj Grover</tspan></text>
<text xml:space="preserve" transform="matrix(.75 0 0 .75 183 52.5)" font-size="13" font-family="ArialMT"><tspan y="164.24512" x="475 482.228 491.61399 500.99998 504.60099 511.82899 519.057">LHC 201</tspan></text>
<text xml:space="preserve" transform="matrix(.75 0 0 .75 183 52.5)" font-size="13" font-family="ArialMT"><tspan y="185.24512" x="111.36914 118.59714 125.825138 129.42613 140.25513 147.48313">31 May</tspan></text>
<text xml:space="preserve" transform="matrix(.75 0 0 .75 183 52.5)" font-size="13" font-family="ArialMT"><tspan y="185.24512" x="161 167.5 174.728 177.614 184.842 191.342 194.943 202.17099 205.77199 209.37299 218.75899 225.98699 236.81598 244.04398 251.27198 257.77198 260.65797 267.88597 275.11396">Tales of Humankind </tspan></text>
<text xml:space="preserve" transform="matrix(.75 0 0 .75 183 52.5)" font-size="13" font-family="ArialMT"><tspan y="185.24512" x="475 482.228 491.61399 500.99998 504.60099 511.82899 519.057">LHC 201</tspan></text>
<text xml:space="preserve" transform="matrix(.75 0 0 .75 183 52.5)" font-size="13" font-family="ArialMT"><tspan y="206.24512" x="114.96826 122.19626 125.79726 132.29726 139.52526 146.75325">1 June</tspan></text>
<text xml:space="preserve" transform="matrix(.75 0 0 .75 183 52.5)" font-size="13" font-family="ArialMT"><tspan y="206.24512" x="161 171.829 176.15799 179.04399 187.702 190.588 197.816 204.316 207.91699 216.575 220.176 229.562 236.79 239.676 246.90399 249.79 253.39099 262.04899 269.27699 272.16297 275.04896 281.54896">Mr Ajay &amp; Delhi Police</tspan></text>
<text xml:space="preserve" transform="matrix(.75 0 0 .75 183 52.5)" font-size="13" font-family="ArialMT"><tspan y="206.24512" x="325 332.47499 339.70298 346.93098 354.15898 357.75999 366.41798 370.01899 378.67698 385.90498 388.79096 392.39198 396.72099 406.10697 413.33497 416.93598 424.16398 431.39198 437.89198">Yoga &amp; Self-Defence</tspan></text>
<text xml:space="preserve" transform="matrix(.75 0 0 .75 183 52.5)" font-size="13" font-family="ArialMT"><tspan y="206.24512" x="475 485.101 489.43003 496.65803 503.88603 511.114 518.34207 521.94308 531.32907 538.55709 541.44308">Ground/Hall</tspan></text>
<text xml:space="preserve" transform="matrix(.75 0 0 .75 183 52.5)" font-size="13" font-family="ArialMT"><tspan y="227.24512" x="114.96826 122.19626 125.79726 132.29726 139.52526 146.75325">2 June</tspan></text>
<text xml:space="preserve" transform="matrix(.75 0 0 .75 183 52.5)" font-size="13" font-family="ArialMT"><tspan y="227.24512" x="161 167.5 174.728 177.614 184.842 191.342 194.943 202.17099 205.77199 209.37299 218.75899 225.98699 236.81598 244.04398 251.27198 257.77198 260.65797 267.88597 275.11396">Tales of Humankind </tspan></text>
<text xml:space="preserve" transform="matrix(.75 0 0 .75 183 52.5)" font-size="13" font-family="ArialMT"><tspan y="227.24512" x="475 482.228 491.61399 500.99998 504.60099 511.82899 519.057">LHC 201</tspan></text>
<text xml:space="preserve" transform="matrix(.75 0 0 .75 183 52.5)" font-size="13" font-family="ArialMT"><tspan y="332.24513" x="6 18.025 25.253 32.481004 38.981004 42.582006">Week 3</tspan></text>
<text xml:space="preserve" transform="matrix(.75 0 0 .75 183 52.5)" font-size="13" font-family="ArialMT"><tspan y="248.24512" x="114.96826 122.19626 125.79726 132.29726 139.52526 146.75325">5 June</tspan></text>
<text xml:space="preserve" transform="matrix(.75 0 0 .75 183 52.5)" font-size="13" font-family="ArialMT"><tspan y="248.24512" x="161 167.5 174.728 177.614 184.842 191.342 194.943 202.17099 205.77199 209.37299 218.75899 225.98699 236.81598 244.04398 251.27198 257.77198 260.65797 267.88597 275.11396">Tales of Humankind </tspan></text>
<text xml:space="preserve" transform="matrix(.75 0 0 .75 183 52.5)" font-size="13" font-family="ArialMT"><tspan y="248.24512" x="475 482.228 491.61399 500.99998 504.60099 511.82899 519.057">LHC 201</tspan></text>
<text xml:space="preserve" transform="matrix(.75 0 0 .75 183 52.5)" font-size="13" font-family="ArialMT"><tspan y="269.24513" x="114.96826 122.19626 125.79726 132.29726 139.52526 146.75325">6 June</tspan></text>
<text xml:space="preserve" transform="matrix(.75 0 0 .75 183 52.5)" font-size="13" font-family="ArialMT"><tspan y="269.24513" x="161 169.658 173.987 181.215 184.816 187.702 196.36 203.588 210.816 213.702 217.303 227.40399 231.73299 238.96099 245.46099 252.68898">Prof Anuj Grover</tspan></text>
<text xml:space="preserve" transform="matrix(.75 0 0 .75 183 52.5)" font-size="13" font-family="ArialMT"><tspan y="269.24513" x="475 482.228 491.61399 500.99998 504.60099 511.82899 519.057">LHC 201</tspan></text>
<text xml:space="preserve" transform="matrix(.75 0 0 .75 183 52.5)" font-size="13" font-family="ArialMT"><tspan y="290.24513" x="114.96826 122.19626 125.79726 132.29726 139.52526 146.75325">7 June</tspan></text>
<text xml:space="preserve" transform="matrix(.75 0 0 .75 183 52.5)" font-size="13" font-family="ArialMT"><tspan y="290.24513" x="161 163.886 173.272 180.5">iHub</tspan></text>
<text xml:space="preserve" transform="matrix(.75 0 0 .75 183 52.5)" font-size="13" font-family="ArialMT"><tspan y="290.24513" x="475 482.228 491.61399 500.99998 504.60099 511.82899 519.057">LHC 201</tspan></text>
<text xml:space="preserve" transform="matrix(.75 0 0 .75 183 52.5)" font-size="13" font-family="ArialMT"><tspan y="311.24513" x="114.96826 122.19626 125.79726 132.29726 139.52526 146.75325">8 June</tspan></text>
<text xml:space="preserve" transform="matrix(.75 0 0 .75 183 52.5)" font-size="13" font-family="ArialMT"><tspan y="311.24513" x="161 171.829 176.15799 179.75899 189.14499 196.37299 203.60099 210.82898">Mr Rahul</tspan></text>
<text xml:space="preserve" transform="matrix(.75 0 0 .75 183 52.5)" font-size="13" font-family="ArialMT"><tspan y="311.24513" x="325 334.386 341.61399 348.84199">Robo</tspan></text>
<text xml:space="preserve" transform="matrix(.75 0 0 .75 183 52.5)" font-size="13" font-family="ArialMT"><tspan y="311.24513" x="475 482.228 491.61399 500.99998 504.60099 511.82899 519.057">LHC 201</tspan></text>
<text xml:space="preserve" transform="matrix(.75 0 0 .75 183 52.5)" font-size="13" font-family="ArialMT"><tspan y="332.24513" x="114.96826 122.19626 125.79726 132.29726 139.52526 146.75325">9 June</tspan></text>
<text xml:space="preserve" transform="matrix(.75 0 0 .75 183 52.5)" font-size="13" font-family="ArialMT"><tspan y="332.24513" x="161 171.829 176.15799 179.04399 187.702 190.588 197.816">Mr Ajay</tspan></text>
<text xml:space="preserve" transform="matrix(.75 0 0 .75 183 52.5)" font-size="13" font-family="ArialMT"><tspan y="332.24513" x="325 333.658 340.886 348.11399">Yoga</tspan></text>
<text xml:space="preserve" transform="matrix(.75 0 0 .75 183 52.5)" font-size="13" font-family="ArialMT"><tspan y="332.24513" x="475 485.101 489.43003 496.65803 503.88603 511.114">Ground</tspan></text>
<text xml:space="preserve" transform="matrix(.75 0 0 .75 183 52.5)" font-size="13" font-family="ArialMT"><tspan y="437.24513" x="6 18.025 25.253 32.481004 38.981004 42.582006">Week 4</tspan></text>
<text xml:space="preserve" transform="matrix(.75 0 0 .75 183 52.5)" font-size="13" font-family="ArialMT"><tspan y="353.24513" x="107.73828 114.96628 122.194278 125.79527 132.29528 139.52327 146.75127">12 June</tspan></text>
<text xml:space="preserve" transform="matrix(.75 0 0 .75 183 52.5)" font-size="13" font-family="ArialMT"><tspan y="353.24513" x="161 167.5 174.728 177.614 184.842 191.342 194.943 202.17099 205.77199 209.37299 218.75899 225.98699 236.81598 244.04398 251.27198 257.77198 260.65797 267.88597 275.11396">Tales of Humankind </tspan></text>
<text xml:space="preserve" transform="matrix(.75 0 0 .75 183 52.5)" font-size="13" font-family="ArialMT"><tspan y="353.24513" x="475 482.228 491.61399 500.99998 504.60099 511.82899 519.057">LHC 201</tspan></text>
<text xml:space="preserve" transform="matrix(.75 0 0 .75 183 52.5)" font-size="13" font-family="ArialMT"><tspan y="374.24513" x="107.73828 114.96628 122.194278 125.79527 132.29528 139.52327 146.75127">13 June</tspan></text>
<text xml:space="preserve" transform="matrix(.75 0 0 .75 183 52.5)" font-size="13" font-family="ArialMT"><tspan y="395.24513" x="107.73828 114.96628 122.194278 125.79527 132.29528 139.52327 146.75127">14 June</tspan></text>
<text xml:space="preserve" transform="matrix(.75 0 0 .75 183 52.5)" font-size="13" font-family="ArialMT"><tspan y="395.24513" x="161 171.829 176.15799 179.04399 187.468 193.968 201.196 207.696 214.924 218.525 228.62599 235.85399 242.35399 249.58199">Mr Ayush Goyal</tspan></text>
<text xml:space="preserve" transform="matrix(.75 0 0 .75 183 52.5)" font-size="13" font-family="ArialMT"><tspan y="395.24513" x="475 482.228 491.61399 500.99998 504.60099 511.82899 519.057">LHC 201</tspan></text>
<text xml:space="preserve" transform="matrix(.75 0 0 .75 183 52.5)" font-size="13" font-family="ArialMT"><tspan y="416.24513" x="107.73828 114.96628 122.194278 125.79527 132.29528 139.52327 146.75127">15 June</tspan></text>
<text xml:space="preserve" transform="matrix(.75 0 0 .75 183 52.5)" font-size="13" font-family="ArialMT"><tspan y="437.24513" x="107.73828 114.96628 122.194278 125.79527 132.29528 139.52327 146.75127">16 June</tspan></text>
<text xml:space="preserve" transform="matrix(.75 0 0 .75 183 52.5)" font-size="13" font-family="ArialMT"><tspan y="458.24513" x="6 14.658 21.886002">Sat</tspan></text>
<text xml:space="preserve" transform="matrix(.75 0 0 .75 183 52.5)" font-size="13" font-family="ArialMT"><tspan y="458.24513" x="107.73828 114.96628 122.194278 125.79527 132.29528 139.52327 146.75127">17 June</tspan></text>
<text xml:space="preserve" transform="matrix(.75 0 0 .75 183 52.5)" font-size="13" font-family="ArialMT"><tspan y="458.24513" x="207 216.386 219.272 226.5 233 235.886 243.114 250.342 253.943 263.32899 270.55699 274.886 285.715 292.943 300.171 306.671 310.272 317.5 324.728 331.956 335.557 344.215 348.544 351.43 357.93 365.158 368.759 378.145 385.373 389.702 400.531 407.759 414.987">Closing Cermony and Price Cermony</tspan></text>
</g>
</g>
</svg>