<svg xmlns="http://www.w3.org/2000/svg" xmlns:xlink="http://www.w3.org/1999/xlink" version="1.1" width="842pt" height="595pt" viewBox="0 0 842 595">
<defs>
<clipPath id="clip_0">
<path transform="matrix(.9375,0,0,.9375,19.75,108.59375)" d="M-2-2H858V405H-2V-2Z"/>
</clipPath>
</defs>
<g>
<g clip-path="url(#clip_0)">
<path transform="matrix(.9375,0,0,.9375,19.75,108.59375)" d="M3 0H857V2H3V0Z" fill="#ffffff"/>
<path transform="matrix(.9375,0,0,.9375,19.75,108.59375)" d="M-1-1H3V404H-1V-1Z" fill="#ffffff"/>
<path transform="matrix(.9375,0,0,.9375,19.75,108.59375)" d="M2 1H857V23H2V1Z" fill="#b7b7b7"/>
<path transform="matrix(.9375,0,0,.9375,19.75,108.59375)" d="M2 22H205V404H2V22Z" fill="#b7b7b7"/>
<path transform="matrix(.9375,0,0,.9375,19.75,108.59375)" d="M204 22H857V404H204V22Z" fill="#ffe599"/>
<path transform="matrix(.9375,0,0,.9375,19.75,108.59375)" d="M0 0V0 1H-1V0ZM0 2V2 22H-1V2ZM0 23V23 57H-1V23ZM0 58V58 69H-1V58ZM0 70V70 104H-1V70ZM0 105V105 139H-1V105ZM0 140V140 174H-1V140ZM0 175V175 209H-1V175ZM0 210V210 244H-1V210ZM0 245V245 253H-1V245ZM0 254V254 288H-1V254ZM0 289V289 298H-1V289ZM0 299V299 319H-1V299ZM0 320V320 340H-1V320ZM0 341V341 361H-1V341ZM0 362V362 382H-1V362ZM0 383V383 403H-1V383ZM-1 1V1H2V2H-1ZM3 0V0 1H2V0ZM-1 22V22H2V23H-1ZM-1 57V57H2V58H-1ZM-1 69V69H2V70H-1ZM-1 104V104H2V105H-1ZM-1 139V139H2V140H-1ZM-1 174V174H2V175H-1ZM-1 209V209H2V210H-1ZM-1 244V244H2V245H-1ZM-1 253V253H2V254H-1ZM-1 288V288H2V289H-1ZM-1 298V298H2V299H-1ZM-1 319V319H2V320H-1ZM-1 340V340H2V341H-1ZM-1 361V361H2V362H-1ZM-1 382V382H2V383H-1ZM-1 403V403H2V404H-1ZM104 0V0 1H103V0ZM205 0V0 1H204V0ZM343 0V0 1H342V0ZM464 0V0 1H463V0ZM591 0V0 1H590V0ZM720 0V0 1H719V0ZM857 0V0 1H856V0ZM-1-1V-1H857V0H-1Z" fill-opacity=".14901962"/>
<path transform="matrix(.9375,0,0,.9375,19.75,108.59375)" stroke-width="1" stroke-linecap="butt" stroke-miterlimit="10" stroke-linejoin="miter" fill="none" stroke="#000000" d="M2.5 1V404M103.5 1V404M204.5 1V404M342.5 1V23M342.5 69V245M342.5 298V404M463.5 1V23M463.5 69V245M463.5 298V404M590.5 1V23M590.5 69V245M590.5 298V404M719.5 1V23M719.5 69V245M719.5 298V404M2 1.5H857M2 22.5H857M2 57.5H857M2 69.5H857M103 104.5H857M103 139.5H857M103 174.5H857M103 209.5H857M2 244.5H857M2 253.5H857M2 288.5H857M2 298.5H857M103 319.5H857M103 340.5H857M103 361.5H857M103 382.5H857M2 403.5H857M856.5 1V404"/>
<text xml:space="preserve" transform="matrix(.9375 0 0 .9375 19.75 108.59375)" font-size="13" font-family="Arial" font-weight="bold"><tspan y="16.193848" x="37 44.93 48.531003 60.088006">Time</tspan></text>
<text xml:space="preserve" transform="matrix(.9375 0 0 .9375 19.75 108.59375)" font-size="13" font-family="Arial" font-weight="bold"><tspan y="16.193848" x="142 151.386 158.614">Day</tspan></text>
<text xml:space="preserve" transform="matrix(.9375 0 0 .9375 19.75 108.59375)" font-size="13" font-family="Arial" font-weight="bold"><tspan y="16.193848" x="228 238.101 243.158 251.08802 259.018 266.948 270.549 277.777 281.37803 285.70704 289.30805 298.69404 302.29505 310.22505">Group 1 - Blue</tspan></text>
<text xml:space="preserve" transform="matrix(.9375 0 0 .9375 19.75 108.59375)" font-size="13" font-family="Arial" font-weight="bold"><tspan y="16.193848" x="360 370.101 375.15803 383.088 391.018 398.948 402.549 409.777 413.37803 417.70704 421.30805 430.69404 437.92204">Group 2 - Red</tspan></text>
<text xml:space="preserve" transform="matrix(.9375 0 0 .9375 19.75 108.59375)" font-size="13" font-family="Arial" font-weight="bold"><tspan y="16.193848" x="475 485.101 490.15803 498.088 506.018 513.948 517.549 524.77706 528.37808 532.70706 536.30807 544.96609 552.1941 555.7951 559.3961 567.3261">Group 3 - Yellow</tspan></text>
<text xml:space="preserve" transform="matrix(.9375 0 0 .9375 19.75 108.59375)" font-size="13" font-family="Arial" font-weight="bold"><tspan y="16.193848" x="605 615.101 620.158 628.088 636.018 643.948 647.549 654.77706 658.37808 662.70706 666.30807 676.40908 681.46609 688.6941 695.9221">Group 4 - Green</tspan></text>
<text xml:space="preserve" transform="matrix(.9375 0 0 .9375 19.75 108.59375)" font-size="13" font-family="Arial" font-weight="bold"><tspan y="16.193848" x="737 747.101 752.158 760.088 768.018 775.948 779.549 786.77706 790.37808 794.70706 798.30807 806.96609 814.89608 819.95309 827.88308 831.4841">Group 5 - Purple</tspan></text>
<text xml:space="preserve" transform="matrix(.9375 0 0 .9375 19.75 108.59375)" font-size="13" font-family="Arial" font-weight="bold"><tspan y="44.193849" x="21 28.228 32.557 39.785 47.013 50.614004 54.943 58.544004 65.772 70.101009 77.32901">8:00 - 9:00</tspan></text>
<text xml:space="preserve" transform="matrix(.9375 0 0 .9375 19.75 108.59375)" font-size="13" font-family="Arial" font-weight="bold"><tspan y="37.193849" x="119 129.829 137.759 145.689 153.61899 160.84699 168.07498 171.67598 176.00498 183.93497">Monday to </tspan></text>
<text xml:space="preserve" transform="matrix(.9375 0 0 .9375 19.75 108.59375)" font-size="13" font-family="Arial" font-weight="bold"><tspan y="52.14258" x="137 144.93 148.53099 156.461 163.689">Fiday</tspan></text>
<text xml:space="preserve" transform="matrix(.9375 0 0 .9375 19.75 108.59375)" font-size="13" font-family="Arial" font-weight="bold"><tspan y="44.193849" x="476 486.829 494.759 499.816 507.746 511.34703 519.27706 527.20706 530.80807 539.46609 546.6941 553.9221 561.15017 564.75119 572.68118 580.61117">Morning Session </tspan></text>
<text xml:space="preserve" transform="matrix(.9375 0 0 .9375 19.75 108.59375)" font-size="13" font-family="Arial" font-weight="bold"><tspan y="161.19385" x="17 24.228 28.557002 35.785005 43.013006 46.614007 50.943006 54.544008 61.772008 69.00001 73.32901 80.55701">9:30 - 11:00</tspan></text>
<text xml:space="preserve" transform="matrix(.9375 0 0 .9375 19.75 108.59375)" font-size="13" font-family="Arial" font-weight="bold"><tspan y="91.19385" x="129 139.829 147.759 155.689 163.61899 170.84699">Monday</tspan></text>
<text xml:space="preserve" transform="matrix(.9375 0 0 .9375 19.75 108.59375)" font-size="13" font-family="Arial" font-weight="bold"><tspan y="91.19385" x="239 248.386 255.614 259.943 265 272.93 280.86 288.78999 300.347">Astronomy</tspan></text>
<text xml:space="preserve" transform="matrix(.9375 0 0 .9375 19.75 108.59375)" font-size="13" font-family="Arial" font-weight="bold"><tspan y="91.19385" x="387 397.829 405.057 409.38603">Math</tspan></text>
<text xml:space="preserve" transform="matrix(.9375 0 0 .9375 19.75 108.59375)" font-size="13" font-family="Arial" font-weight="bold"><tspan y="91.19385" x="476 485.386 493.31599 501.24598 504.847 508.448 515.676 523.606 527.20706 535.86508 543.0931 546.6941 553.9221 561.8521 569.08016">Applied Science</tspan></text>
<text xml:space="preserve" transform="matrix(.9375 0 0 .9375 19.75 108.59375)" font-size="13" font-family="Arial" font-weight="bold"><tspan y="84.29639" x="622 631.386 639.316 646.544 650.145 657.37307 661.702 665.30307 672.53109 679.7591 683.3601">Analytical </tspan></text>
<text xml:space="preserve" transform="matrix(.9375 0 0 .9375 19.75 108.59375)" font-size="13" font-family="Arial" font-weight="bold"><tspan y="99.24512" x="621 630.386 637.614 644.84207 652.07009 660.00009 667.93008 671.53109 679.46109">Reasoning</tspan></text>
<text xml:space="preserve" transform="matrix(.9375 0 0 .9375 19.75 108.59375)" font-size="13" font-family="Arial" font-weight="bold"><tspan y="91.19385" x="757 764.93 768.531 772.86 780.088 783.689 792.34707 799.5751 803.1761 806.7771 810.3781">Life Skills</tspan></text>
<text xml:space="preserve" transform="matrix(.9375 0 0 .9375 19.75 108.59375)" font-size="13" font-family="Arial" font-weight="bold"><tspan y="126.19385" x="127 134.93 142.85999 150.08798 157.31598 165.24597 172.47397">Tuesday</tspan></text>
<text xml:space="preserve" transform="matrix(.9375 0 0 .9375 19.75 108.59375)" font-size="13" font-family="Arial" font-weight="bold"><tspan y="126.19385" x="258 268.829 276.057 280.38603">Math</tspan></text>
<text xml:space="preserve" transform="matrix(.9375 0 0 .9375 19.75 108.59375)" font-size="13" font-family="Arial" font-weight="bold"><tspan y="126.19385" x="352 361.386 369.31599 377.24598 380.847 384.448 391.676 399.606 403.207 411.865 419.093 422.694 429.922 437.852 445.08">Applied Science</tspan></text>
<text xml:space="preserve" transform="matrix(.9375 0 0 .9375 19.75 108.59375)" font-size="13" font-family="Arial" font-weight="bold"><tspan y="119.29639" x="494 503.386 511.31599 518.544 522.145 529.37307 533.702 537.30307 544.53109 551.7591 555.3601">Analytical </tspan></text>
<text xml:space="preserve" transform="matrix(.9375 0 0 .9375 19.75 108.59375)" font-size="13" font-family="Arial" font-weight="bold"><tspan y="134.24512" x="493 502.386 509.61399 516.842 524.07 532 539.93 543.531 551.461">Reasoning</tspan></text>
<text xml:space="preserve" transform="matrix(.9375 0 0 .9375 19.75 108.59375)" font-size="13" font-family="Arial" font-weight="bold"><tspan y="126.19385" x="624 631.93 635.531 639.86 647.088 650.689 659.34707 666.5751 670.1761 673.7771 677.3781">Life Skills</tspan></text>
<text xml:space="preserve" transform="matrix(.9375 0 0 .9375 19.75 108.59375)" font-size="13" font-family="Arial" font-weight="bold"><tspan y="126.19385" x="753 762.386 769.614 773.943 779 786.93 794.86 802.79 814.347">Astronomy</tspan></text>
<text xml:space="preserve" transform="matrix(.9375 0 0 .9375 19.75 108.59375)" font-size="13" font-family="Arial" font-weight="bold"><tspan y="161.19385" x="117 129.259 136.487 144.41699 152.34699 159.57498 166.80298 174.73297 181.96097">Wednesday</tspan></text>
<text xml:space="preserve" transform="matrix(.9375 0 0 .9375 19.75 108.59375)" font-size="13" font-family="Arial" font-weight="bold"><tspan y="161.19385" x="223 232.386 240.31601 248.246 251.847 255.448 262.676 270.606 274.207 282.865 290.093 293.694 300.922 308.852 316.08">Applied Science</tspan></text>
<text xml:space="preserve" transform="matrix(.9375 0 0 .9375 19.75 108.59375)" font-size="13" font-family="Arial" font-weight="bold"><tspan y="154.29639" x="370 379.386 387.31599 394.54399 398.145 405.373 409.702 413.303 420.531 427.759 431.36003">Analytical </tspan></text>
<text xml:space="preserve" transform="matrix(.9375 0 0 .9375 19.75 108.59375)" font-size="13" font-family="Arial" font-weight="bold"><tspan y="169.24512" x="369 378.386 385.61399 392.84199 400.06999 407.99998 415.92997 419.53099 427.46098">Reasoning</tspan></text>
<text xml:space="preserve" transform="matrix(.9375 0 0 .9375 19.75 108.59375)" font-size="13" font-family="Arial" font-weight="bold"><tspan y="161.19385" x="496 503.93 507.531 511.86003 519.088 522.689 531.34707 538.5751 542.1761 545.7771 549.3781">Life Skills</tspan></text>
<text xml:space="preserve" transform="matrix(.9375 0 0 .9375 19.75 108.59375)" font-size="13" font-family="Arial" font-weight="bold"><tspan y="161.19385" x="620 629.386 636.614 640.943 646 653.93 661.86 669.79 681.347">Astronomy</tspan></text>
<text xml:space="preserve" transform="matrix(.9375 0 0 .9375 19.75 108.59375)" font-size="13" font-family="Arial" font-weight="bold"><tspan y="161.19385" x="772 782.829 790.057 794.386">Math</tspan></text>
<text xml:space="preserve" transform="matrix(.9375 0 0 .9375 19.75 108.59375)" font-size="13" font-family="Arial" font-weight="bold"><tspan y="196.19385" x="124 131.93 139.85999 147.78998 152.84699 160.07498 168.00498 175.23297">Thursday</tspan></text>
<text xml:space="preserve" transform="matrix(.9375 0 0 .9375 19.75 108.59375)" font-size="13" font-family="Arial" font-weight="bold"><tspan y="189.19385" x="240 249.386 257.316 264.544 268.14503 275.37303 279.70204 283.30305 290.53105 297.75904 301.36006">Analytical </tspan></text>
<text xml:space="preserve" transform="matrix(.9375 0 0 .9375 19.75 108.59375)" font-size="13" font-family="Arial" font-weight="bold"><tspan y="204.14258" x="240 249.386 256.614 263.842 271.07 279 286.93 290.531 298.461">Reasoning</tspan></text>
<text xml:space="preserve" transform="matrix(.9375 0 0 .9375 19.75 108.59375)" font-size="13" font-family="Arial" font-weight="bold"><tspan y="196.19385" x="372 379.93 383.531 387.86003 395.088 398.68904 407.34703 414.575 418.17604 421.77705 425.37806">Life Skills</tspan></text>
<text xml:space="preserve" transform="matrix(.9375 0 0 .9375 19.75 108.59375)" font-size="13" font-family="Arial" font-weight="bold"><tspan y="196.19385" x="492 501.386 508.61399 512.943 518 525.93 533.86 541.79 553.347">Astronomy</tspan></text>
<text xml:space="preserve" transform="matrix(.9375 0 0 .9375 19.75 108.59375)" font-size="13" font-family="Arial" font-weight="bold"><tspan y="196.19385" x="639 649.829 657.057 661.386">Math</tspan></text>
<text xml:space="preserve" transform="matrix(.9375 0 0 .9375 19.75 108.59375)" font-size="13" font-family="Arial" font-weight="bold"><tspan y="196.19385" x="737 746.386 754.316 762.246 765.847 769.448 776.676 784.606 788.20706 796.86508 804.0931 807.6941 814.9221 822.8521 830.08016">Applied Science</tspan></text>
<text xml:space="preserve" transform="matrix(.9375 0 0 .9375 19.75 108.59375)" font-size="13" font-family="Arial" font-weight="bold"><tspan y="231.19385" x="134 141.93 146.987 150.588 158.518 165.746">Friday</tspan></text>
<text xml:space="preserve" transform="matrix(.9375 0 0 .9375 19.75 108.59375)" font-size="13" font-family="Arial" font-weight="bold"><tspan y="231.19385" x="243 250.93 254.53099 258.86 266.08799 269.689 278.347 285.57499 289.176 292.777 296.37803">Life Skills</tspan></text>
<text xml:space="preserve" transform="matrix(.9375 0 0 .9375 19.75 108.59375)" font-size="13" font-family="Arial" font-weight="bold"><tspan y="231.19385" x="368 377.386 384.61399 388.943 394 401.93 409.86 417.78999 429.347">Astronomy</tspan></text>
<text xml:space="preserve" transform="matrix(.9375 0 0 .9375 19.75 108.59375)" font-size="13" font-family="Arial" font-weight="bold"><tspan y="231.19385" x="511 521.829 529.057 533.386">Math</tspan></text>
<text xml:space="preserve" transform="matrix(.9375 0 0 .9375 19.75 108.59375)" font-size="13" font-family="Arial" font-weight="bold"><tspan y="231.19385" x="602 611.386 619.316 627.246 630.847 634.448 641.676 649.606 653.20706 661.86508 669.0931 672.6941 679.9221 687.8521 695.08016 702.30819">Applied Science </tspan></text>
<text xml:space="preserve" transform="matrix(.9375 0 0 .9375 19.75 108.59375)" font-size="13" font-family="Arial" font-weight="bold"><tspan y="224.29639" x="755 764.386 772.316 779.544 783.145 790.37307 794.702 798.30307 805.53109 812.7591 816.3601">Analytical </tspan></text>
<text xml:space="preserve" transform="matrix(.9375 0 0 .9375 19.75 108.59375)" font-size="13" font-family="Arial" font-weight="bold"><tspan y="239.24512" x="754 763.386 770.614 777.84207 785.07009 793.00009 800.93008 804.53109 812.46109">Reasoning</tspan></text>
<text xml:space="preserve" transform="matrix(.9375 0 0 .9375 19.75 108.59375)" font-size="13" font-family="Arial" font-weight="bold"><tspan y="275.19386" x="13 20.228 27.456002 31.785002 39.013 46.241 49.842004 54.171 57.772005 65 72.228 76.557 83.785">11:00 - 12:00</tspan></text>
<text xml:space="preserve" transform="matrix(.9375 0 0 .9375 19.75 108.59375)" font-size="13" font-family="Arial" font-weight="bold"><tspan y="268.19386" x="119 129.829 137.759 145.689 153.61899 160.84699 168.07498 171.67598 176.00498 183.93497">Monday to </tspan></text>
<text xml:space="preserve" transform="matrix(.9375 0 0 .9375 19.75 108.59375)" font-size="13" font-family="Arial" font-weight="bold"><tspan y="283.14259" x="137 144.93 148.53099 156.461 163.689">Fiday</tspan></text>
<text xml:space="preserve" transform="matrix(.9375 0 0 .9375 19.75 108.59375)" font-size="13" font-family="Arial" font-weight="bold"><tspan y="275.19386" x="507 514.93 524.316 533.70199 543.08798">LUNCH</tspan></text>
<text xml:space="preserve" transform="matrix(.9375 0 0 .9375 19.75 108.59375)" font-size="13" font-family="Arial" font-weight="bold"><tspan y="355.19386" x="13 20.228 27.456002 31.785002 39.013 46.241 49.842004 54.171 57.772005 65 72.228 76.557 83.785">12:00 - 13:30</tspan></text>
<text xml:space="preserve" transform="matrix(.9375 0 0 .9375 19.75 108.59375)" font-size="13" font-family="Arial" font-weight="bold"><tspan y="313.19386" x="129 139.829 147.759 155.689 163.61899 170.84699">Monday</tspan></text>
<text xml:space="preserve" transform="matrix(.9375 0 0 .9375 19.75 108.59375)" font-size="13" font-family="Arial" font-weight="bold"><tspan y="313.19386" x="218 226.658 231.71501 239.64502 247.57501 251.17601 260.562 267.79 275.018 278.61903 285.84703 293.777 301.707 305.308 313.966 321.194 324.795">Prod Dev and Sell</tspan></text>
<text xml:space="preserve" transform="matrix(.9375 0 0 .9375 19.75 108.59375)" font-size="13" font-family="Arial" font-weight="bold"><tspan y="313.19386" x="360 363.601 371.531 379.461 387.391 395.32099 400.378 403.979 412.637 420.567 428.49699 433.554 437.883">Indoor Sports</tspan></text>
<text xml:space="preserve" transform="matrix(.9375 0 0 .9375 19.75 108.59375)" font-size="13" font-family="Arial" font-weight="bold"><tspan y="313.19386" x="489 496.93 504.86 512.79 516.391 525.777 533.005 537.334 540.935 548.163 551.76406 556.093">Fun Activity</tspan></text>
<text xml:space="preserve" transform="matrix(.9375 0 0 .9375 19.75 108.59375)" font-size="13" font-family="Arial" font-weight="bold"><tspan y="314.24513" x="598 607.386 614.614 621.84207 629.77206 633.37307 641.30307 649.23306 652.83407 662.22006 665.82107 678.08 683.137 686.73806 691.067 694.668 702.598">Reading &#x0026; Writing</tspan></text>
<text xml:space="preserve" transform="matrix(.9375 0 0 .9375 19.75 108.59375)" font-size="13" font-family="Arial" font-weight="bold"><tspan y="313.19386" x="741 750.386 755.443 759.772 767 770.601 777.82907 785.75906 793.689 797.29006 806.676 811.73306 818.96109 823.29006 827.619">Arts and Crafts</tspan></text>
<text xml:space="preserve" transform="matrix(.9375 0 0 .9375 19.75 108.59375)" font-size="13" font-family="Arial" font-weight="bold"><tspan y="334.19386" x="127 134.93 142.85999 150.08798 157.31598 165.24597 172.47397">Tuesday</tspan></text>
<text xml:space="preserve" transform="matrix(.9375 0 0 .9375 19.75 108.59375)" font-size="13" font-family="Arial" font-weight="bold"><tspan y="334.19386" x="230 233.601 241.531 249.461 257.391 265.32099 270.378 273.979 282.637 290.567 298.49699 303.554 307.883">Indoor Sports</tspan></text>
<text xml:space="preserve" transform="matrix(.9375 0 0 .9375 19.75 108.59375)" font-size="13" font-family="Arial" font-weight="bold"><tspan y="334.19386" x="365 372.93 380.86 388.78999 392.391 401.77699 409.00498 413.33399 416.935 424.163 427.764 432.09303">Fun Activity</tspan></text>
<text xml:space="preserve" transform="matrix(.9375 0 0 .9375 19.75 108.59375)" font-size="13" font-family="Arial" font-weight="bold"><tspan y="335.24513" x="470 479.386 486.61399 493.84199 501.77198 505.373 513.303 521.233 524.834 534.22 537.821 550.07998 555.13699 558.738 563.06698 566.66799 574.59799">Reading &#x0026; Writing</tspan></text>
<text xml:space="preserve" transform="matrix(.9375 0 0 .9375 19.75 108.59375)" font-size="13" font-family="Arial" font-weight="bold"><tspan y="334.19386" x="608 617.386 622.443 626.772 634 637.601 644.82907 652.75906 660.689 664.29006 673.676 678.73306 685.96109 690.29006 694.619">Arts and Crafts</tspan></text>
<text xml:space="preserve" transform="matrix(.9375 0 0 .9375 19.75 108.59375)" font-size="13" font-family="Arial" font-weight="bold"><tspan y="334.19386" x="732 740.658 745.715 753.645 761.575 765.176 774.562 781.79006 789.01809 792.6191 799.8471 807.7771 815.7071 819.3081 827.9661 835.19418 838.79519">Prod Dev and Sell</tspan></text>
<text xml:space="preserve" transform="matrix(.9375 0 0 .9375 19.75 108.59375)" font-size="13" font-family="Arial" font-weight="bold"><tspan y="355.19386" x="117 129.259 136.487 144.41699 152.34699 159.57498 166.80298 174.73297 181.96097">Wednesday</tspan></text>
<text xml:space="preserve" transform="matrix(.9375 0 0 .9375 19.75 108.59375)" font-size="13" font-family="Arial" font-weight="bold"><tspan y="355.19386" x="236 243.93 251.85999 259.78999 263.391 272.77699 280.00498 284.33399 287.935 295.163 298.764 303.09303">Fun Activity</tspan></text>
<text xml:space="preserve" transform="matrix(.9375 0 0 .9375 19.75 108.59375)" font-size="13" font-family="Arial" font-weight="bold"><tspan y="356.24513" x="346 355.386 362.61399 369.84199 377.77198 381.373 389.30299 397.23298 400.83399 410.21998 413.82099 426.08 431.137 434.738 439.06703 442.66804 450.59803">Reading &#x0026; Writing</tspan></text>
<text xml:space="preserve" transform="matrix(.9375 0 0 .9375 19.75 108.59375)" font-size="13" font-family="Arial" font-weight="bold"><tspan y="355.19386" x="480 489.386 494.443 498.772 506 509.601 516.82907 524.75906 532.689 536.29006 545.676 550.73306 557.96109 562.29006 566.619">Arts and Crafts</tspan></text>
<text xml:space="preserve" transform="matrix(.9375 0 0 .9375 19.75 108.59375)" font-size="13" font-family="Arial" font-weight="bold"><tspan y="355.19386" x="599 607.658 612.715 620.645 628.575 632.176 641.562 648.79006 656.01809 659.6191 666.8471 674.7771 682.7071 686.3081 694.9661 702.19418 705.79519">Prod Dev and Sell</tspan></text>
<text xml:space="preserve" transform="matrix(.9375 0 0 .9375 19.75 108.59375)" font-size="13" font-family="Arial" font-weight="bold"><tspan y="355.19386" x="745 748.601 756.531 764.461 772.391 780.321 785.378 788.979 797.637 805.567 813.497 818.554 822.883">Indoor Sports</tspan></text>
<text xml:space="preserve" transform="matrix(.9375 0 0 .9375 19.75 108.59375)" font-size="13" font-family="Arial" font-weight="bold"><tspan y="376.19386" x="124 131.93 139.85999 147.78998 152.84699 160.07498 168.00498 175.23297">Thursday</tspan></text>
<text xml:space="preserve" transform="matrix(.9375 0 0 .9375 19.75 108.59375)" font-size="13" font-family="Arial" font-weight="bold"><tspan y="376.19386" x="217 226.386 233.614 240.842 248.772 252.373 260.303 268.233 271.834 281.22 284.821 297.08003 302.13703 305.73805 310.06706 313.66807 321.59806">Reading &#x0026; Writing</tspan></text>
<text xml:space="preserve" transform="matrix(.9375 0 0 .9375 19.75 108.59375)" font-size="13" font-family="Arial" font-weight="bold"><tspan y="376.19386" x="356 365.386 370.443 374.772 382 385.601 392.829 400.759 408.689 412.29 421.676 426.733 433.961 438.29 442.61903">Arts and Crafts</tspan></text>
<text xml:space="preserve" transform="matrix(.9375 0 0 .9375 19.75 108.59375)" font-size="13" font-family="Arial" font-weight="bold"><tspan y="376.19386" x="471 479.658 484.715 492.645 500.57499 504.176 513.562 520.79006 528.01809 531.6191 538.8471 546.7771 554.7071 558.3081 566.9661 574.19418 577.79519">Prod Dev and Sell</tspan></text>
<text xml:space="preserve" transform="matrix(.9375 0 0 .9375 19.75 108.59375)" font-size="13" font-family="Arial" font-weight="bold"><tspan y="376.19386" x="612 615.601 623.531 631.461 639.391 647.321 652.378 655.979 664.637 672.567 680.497 685.554 689.883">Indoor Sports</tspan></text>
<text xml:space="preserve" transform="matrix(.9375 0 0 .9375 19.75 108.59375)" font-size="13" font-family="Arial" font-weight="bold"><tspan y="376.19386" x="750 757.93 765.86 773.79 777.391 786.777 794.005 798.334 801.935 809.163 812.76406 817.093">Fun Activity</tspan></text>
<text xml:space="preserve" transform="matrix(.9375 0 0 .9375 19.75 108.59375)" font-size="13" font-family="Arial" font-weight="bold"><tspan y="397.19386" x="134 141.93 146.987 150.588 158.518 165.746">Friday</tspan></text>
<text xml:space="preserve" transform="matrix(.9375 0 0 .9375 19.75 108.59375)" font-size="13" font-family="Arial" font-weight="bold"><tspan y="397.19386" x="226 235.386 240.44301 244.772 252 255.601 262.829 270.759 278.689 282.29 291.676 296.733 303.961 308.29 312.61903">Arts and Crafts</tspan></text>
<text xml:space="preserve" transform="matrix(.9375 0 0 .9375 19.75 108.59375)" font-size="13" font-family="Arial" font-weight="bold"><tspan y="397.19386" x="347 355.658 360.715 368.645 376.57499 380.176 389.56199 396.78999 404.01799 407.619 414.847 422.77699 430.70698 434.30799 442.96598 450.19398 453.79499">Prod Dev and Sell</tspan></text>
<text xml:space="preserve" transform="matrix(.9375 0 0 .9375 19.75 108.59375)" font-size="13" font-family="Arial" font-weight="bold"><tspan y="397.19386" x="484 487.601 495.531 503.461 511.391 519.321 524.378 527.979 536.637 544.567 552.497 557.554 561.883">Indoor Sports</tspan></text>
<text xml:space="preserve" transform="matrix(.9375 0 0 .9375 19.75 108.59375)" font-size="13" font-family="Arial" font-weight="bold"><tspan y="397.19386" x="617 624.93 632.86 640.79 644.391 653.777 661.005 665.334 668.935 676.163 679.76406 684.093">Fun Activity</tspan></text>
<text xml:space="preserve" transform="matrix(.9375 0 0 .9375 19.75 108.59375)" font-size="13" font-family="Arial" font-weight="bold"><tspan y="398.24513" x="731 740.386 747.614 754.84207 762.77206 766.37307 774.30307 782.23306 785.83407 795.22006 798.82107 811.08 816.137 819.73806 824.067 827.668 835.598">Reading &#x0026; Writing</tspan></text>
</g>
</g>
</svg>
